<mxfile host="app.diagrams.net" agent="Mozilla/5.0 (Macintosh; Intel Mac OS X 10_15_7) AppleWebKit/605.1.15 (KHTML, like Gecko) Version/18.6 Safari/605.1.15" version="28.1.0">
  <diagram name="第 1 页" id="od3_4CFb0FXrZowHQ2j-">
    <mxGraphModel dx="73" dy="511" grid="0" gridSize="10" guides="1" tooltips="1" connect="1" arrows="1" fold="1" page="0" pageScale="1" pageWidth="827" pageHeight="1169" math="1" shadow="0">
      <root>
        <mxCell id="0" />
        <mxCell id="1" parent="0" />
        <mxCell id="OmSPqTP4PVTNuQ_WRpXy-68" value="工作流程" style="swimlane;html=1;childLayout=stackLayout;horizontal=1;startSize=20;horizontalStack=0;rounded=0;shadow=0;labelBackgroundColor=none;strokeWidth=1;fontFamily=Verdana;fontSize=8;align=center;movable=1;resizable=1;rotatable=1;deletable=1;editable=1;locked=0;connectable=1;" vertex="1" parent="1">
          <mxGeometry x="1289" y="631" width="781" height="833" as="geometry">
            <mxRectangle x="1289" y="631" width="54" height="22" as="alternateBounds" />
          </mxGeometry>
        </mxCell>
        <mxCell id="OmSPqTP4PVTNuQ_WRpXy-69" value="告警组" style="swimlane;html=1;startSize=21;horizontal=0;movable=1;resizable=1;rotatable=1;deletable=1;editable=1;locked=0;connectable=1;" vertex="1" parent="OmSPqTP4PVTNuQ_WRpXy-68">
          <mxGeometry y="20" width="781" height="298" as="geometry">
            <mxRectangle y="20" width="680" height="26" as="alternateBounds" />
          </mxGeometry>
        </mxCell>
        <mxCell id="OmSPqTP4PVTNuQ_WRpXy-70" style="edgeStyle=orthogonalEdgeStyle;rounded=0;html=1;labelBackgroundColor=none;startArrow=none;startFill=0;startSize=5;endArrow=classicThin;endFill=1;endSize=5;jettySize=auto;orthogonalLoop=1;strokeWidth=1;fontFamily=Verdana;fontSize=8;movable=1;resizable=1;rotatable=1;deletable=1;editable=1;locked=0;connectable=1;entryX=0;entryY=0.5;entryDx=0;entryDy=0;" edge="1" parent="OmSPqTP4PVTNuQ_WRpXy-69" source="OmSPqTP4PVTNuQ_WRpXy-71" target="OmSPqTP4PVTNuQ_WRpXy-118">
          <mxGeometry relative="1" as="geometry">
            <mxPoint x="105" y="73" as="targetPoint" />
          </mxGeometry>
        </mxCell>
        <mxCell id="OmSPqTP4PVTNuQ_WRpXy-71" value="开始" style="ellipse;whiteSpace=wrap;html=1;rounded=0;shadow=0;labelBackgroundColor=none;strokeWidth=1;fontFamily=Verdana;fontSize=8;align=center;movable=1;resizable=1;rotatable=1;deletable=1;editable=1;locked=0;connectable=1;" vertex="1" parent="OmSPqTP4PVTNuQ_WRpXy-69">
          <mxGeometry x="38" y="60" width="30" height="30" as="geometry" />
        </mxCell>
        <mxCell id="OmSPqTP4PVTNuQ_WRpXy-118" value="&lt;b style=&quot;font-family: Verdana;&quot;&gt;威胁检测&lt;/b&gt;" style="swimlane;whiteSpace=wrap;html=1;startSize=20;" vertex="1" parent="OmSPqTP4PVTNuQ_WRpXy-69">
          <mxGeometry x="102" y="29.5" width="647" height="91" as="geometry" />
        </mxCell>
        <mxCell id="OmSPqTP4PVTNuQ_WRpXy-119" value="" style="group" vertex="1" connectable="0" parent="OmSPqTP4PVTNuQ_WRpXy-118">
          <mxGeometry x="15" y="34" width="619" height="37" as="geometry" />
        </mxCell>
        <mxCell id="OmSPqTP4PVTNuQ_WRpXy-109" value="优先级3面板" style="rounded=1;whiteSpace=wrap;html=1;shadow=0;labelBackgroundColor=none;strokeWidth=1;fontFamily=Verdana;fontSize=8;align=center;movable=1;resizable=1;rotatable=1;deletable=1;editable=1;locked=0;connectable=1;" vertex="1" parent="OmSPqTP4PVTNuQ_WRpXy-119">
          <mxGeometry x="549" width="70" height="37" as="geometry" />
        </mxCell>
        <mxCell id="OmSPqTP4PVTNuQ_WRpXy-108" value="优先级2面板" style="rounded=1;whiteSpace=wrap;html=1;shadow=0;labelBackgroundColor=none;strokeWidth=1;fontFamily=Verdana;fontSize=8;align=center;movable=1;resizable=1;rotatable=1;deletable=1;editable=1;locked=0;connectable=1;" vertex="1" parent="OmSPqTP4PVTNuQ_WRpXy-119">
          <mxGeometry x="471" width="70" height="37" as="geometry" />
        </mxCell>
        <mxCell id="OmSPqTP4PVTNuQ_WRpXy-107" value="优先级1.8面板" style="rounded=1;whiteSpace=wrap;html=1;shadow=0;labelBackgroundColor=none;strokeWidth=1;fontFamily=Verdana;fontSize=8;align=center;movable=1;resizable=1;rotatable=1;deletable=1;editable=1;locked=0;connectable=1;" vertex="1" parent="OmSPqTP4PVTNuQ_WRpXy-119">
          <mxGeometry x="392" width="70" height="37" as="geometry" />
        </mxCell>
        <mxCell id="OmSPqTP4PVTNuQ_WRpXy-106" value="优先级1.5面板" style="rounded=1;whiteSpace=wrap;html=1;shadow=0;labelBackgroundColor=none;strokeWidth=1;fontFamily=Verdana;fontSize=8;align=center;movable=1;resizable=1;rotatable=1;deletable=1;editable=1;locked=0;connectable=1;" vertex="1" parent="OmSPqTP4PVTNuQ_WRpXy-119">
          <mxGeometry x="314" width="70" height="37" as="geometry" />
        </mxCell>
        <mxCell id="OmSPqTP4PVTNuQ_WRpXy-105" value="优先级1面板" style="rounded=1;whiteSpace=wrap;html=1;shadow=0;labelBackgroundColor=none;strokeWidth=1;fontFamily=Verdana;fontSize=8;align=center;movable=1;resizable=1;rotatable=1;deletable=1;editable=1;locked=0;connectable=1;" vertex="1" parent="OmSPqTP4PVTNuQ_WRpXy-119">
          <mxGeometry x="235" width="70" height="37" as="geometry" />
        </mxCell>
        <mxCell id="OmSPqTP4PVTNuQ_WRpXy-103" value="优先级1面板" style="rounded=1;whiteSpace=wrap;html=1;shadow=0;labelBackgroundColor=none;strokeWidth=1;fontFamily=Verdana;fontSize=8;align=center;movable=1;resizable=1;rotatable=1;deletable=1;editable=1;locked=0;connectable=1;" vertex="1" parent="OmSPqTP4PVTNuQ_WRpXy-119">
          <mxGeometry x="157" width="70" height="37" as="geometry" />
        </mxCell>
        <mxCell id="OmSPqTP4PVTNuQ_WRpXy-102" value="异常加密流量&lt;div&gt;面板&lt;/div&gt;" style="rounded=1;whiteSpace=wrap;html=1;shadow=0;labelBackgroundColor=none;strokeWidth=1;fontFamily=Verdana;fontSize=8;align=center;movable=1;resizable=1;rotatable=1;deletable=1;editable=1;locked=0;connectable=1;" vertex="1" parent="OmSPqTP4PVTNuQ_WRpXy-119">
          <mxGeometry x="78" width="70" height="37" as="geometry" />
        </mxCell>
        <mxCell id="OmSPqTP4PVTNuQ_WRpXy-101" value="0day面板" style="rounded=1;whiteSpace=wrap;html=1;shadow=0;labelBackgroundColor=none;strokeWidth=1;fontFamily=Verdana;fontSize=8;align=center;movable=1;resizable=1;rotatable=1;deletable=1;editable=1;locked=0;connectable=1;" vertex="1" parent="OmSPqTP4PVTNuQ_WRpXy-119">
          <mxGeometry width="70" height="37" as="geometry" />
        </mxCell>
        <mxCell id="OmSPqTP4PVTNuQ_WRpXy-122" value="发现告警/事件" style="rounded=1;whiteSpace=wrap;html=1;shadow=0;labelBackgroundColor=none;strokeWidth=1;fontFamily=Verdana;fontSize=8;align=center;movable=1;resizable=1;rotatable=1;deletable=1;editable=1;locked=0;connectable=1;" vertex="1" parent="OmSPqTP4PVTNuQ_WRpXy-69">
          <mxGeometry x="345.5" y="165" width="178" height="37" as="geometry" />
        </mxCell>
        <mxCell id="OmSPqTP4PVTNuQ_WRpXy-123" value="" style="edgeStyle=none;orthogonalLoop=1;jettySize=auto;html=1;rounded=0;entryX=0.5;entryY=0;entryDx=0;entryDy=0;exitX=0.75;exitY=1;exitDx=0;exitDy=0;" edge="1" parent="OmSPqTP4PVTNuQ_WRpXy-69" source="OmSPqTP4PVTNuQ_WRpXy-118" target="OmSPqTP4PVTNuQ_WRpXy-122">
          <mxGeometry width="80" relative="1" as="geometry">
            <mxPoint x="596" y="117" as="sourcePoint" />
            <mxPoint x="522.8181818181818" y="221.90909090909076" as="targetPoint" />
            <Array as="points">
              <mxPoint x="587" y="140" />
              <mxPoint x="436" y="140" />
            </Array>
          </mxGeometry>
        </mxCell>
        <mxCell id="OmSPqTP4PVTNuQ_WRpXy-81" value="研判组" style="swimlane;html=1;startSize=20;horizontal=0;movable=1;resizable=1;rotatable=1;deletable=1;editable=1;locked=0;connectable=1;" vertex="1" parent="OmSPqTP4PVTNuQ_WRpXy-68">
          <mxGeometry y="318" width="781" height="246" as="geometry" />
        </mxCell>
        <mxCell id="OmSPqTP4PVTNuQ_WRpXy-144" style="edgeStyle=orthogonalEdgeStyle;rounded=0;orthogonalLoop=1;jettySize=auto;html=1;entryX=1;entryY=0.5;entryDx=0;entryDy=0;" edge="1" parent="OmSPqTP4PVTNuQ_WRpXy-81" source="OmSPqTP4PVTNuQ_WRpXy-75" target="OmSPqTP4PVTNuQ_WRpXy-129">
          <mxGeometry relative="1" as="geometry" />
        </mxCell>
        <mxCell id="OmSPqTP4PVTNuQ_WRpXy-75" value="开始" style="ellipse;whiteSpace=wrap;html=1;rounded=0;shadow=0;labelBackgroundColor=none;strokeWidth=2;fontFamily=Verdana;fontSize=8;align=center;movable=1;resizable=1;rotatable=1;deletable=1;editable=1;locked=0;connectable=1;" vertex="1" parent="OmSPqTP4PVTNuQ_WRpXy-81">
          <mxGeometry x="714" y="38.5" width="30" height="30" as="geometry" />
        </mxCell>
        <mxCell id="OmSPqTP4PVTNuQ_WRpXy-146" style="edgeStyle=orthogonalEdgeStyle;rounded=0;orthogonalLoop=1;jettySize=auto;html=1;entryX=0.5;entryY=0;entryDx=0;entryDy=0;" edge="1" parent="OmSPqTP4PVTNuQ_WRpXy-81" source="OmSPqTP4PVTNuQ_WRpXy-129" target="OmSPqTP4PVTNuQ_WRpXy-145">
          <mxGeometry relative="1" as="geometry" />
        </mxCell>
        <mxCell id="OmSPqTP4PVTNuQ_WRpXy-129" value="&lt;font face=&quot;Verdana&quot;&gt;告警研判&lt;/font&gt;" style="swimlane;whiteSpace=wrap;html=1;startSize=20;" vertex="1" parent="OmSPqTP4PVTNuQ_WRpXy-81">
          <mxGeometry x="77" y="8" width="521" height="91" as="geometry" />
        </mxCell>
        <mxCell id="OmSPqTP4PVTNuQ_WRpXy-139" style="edgeStyle=orthogonalEdgeStyle;rounded=0;html=1;labelBackgroundColor=none;startArrow=classic;startFill=1;startSize=5;endArrow=none;endFill=0;endSize=5;jettySize=auto;orthogonalLoop=1;strokeWidth=1;fontFamily=Verdana;fontSize=8;movable=1;resizable=1;rotatable=1;deletable=1;editable=1;locked=0;connectable=1;" edge="1" parent="OmSPqTP4PVTNuQ_WRpXy-129" source="OmSPqTP4PVTNuQ_WRpXy-140" target="OmSPqTP4PVTNuQ_WRpXy-141">
          <mxGeometry relative="1" as="geometry" />
        </mxCell>
        <mxCell id="OmSPqTP4PVTNuQ_WRpXy-140" value="" style="rounded=1;whiteSpace=wrap;html=1;shadow=0;labelBackgroundColor=none;strokeWidth=1;fontFamily=Verdana;fontSize=8;align=center;movable=1;resizable=1;rotatable=1;deletable=1;editable=1;locked=0;connectable=1;" vertex="1" parent="OmSPqTP4PVTNuQ_WRpXy-129">
          <mxGeometry x="33" y="33" width="70" height="37" as="geometry" />
        </mxCell>
        <mxCell id="OmSPqTP4PVTNuQ_WRpXy-141" value="" style="strokeWidth=1;html=1;shape=mxgraph.flowchart.decision;whiteSpace=wrap;rounded=1;shadow=0;labelBackgroundColor=none;fontFamily=Verdana;fontSize=8;align=center;movable=1;resizable=1;rotatable=1;deletable=1;editable=1;locked=0;connectable=1;" vertex="1" parent="OmSPqTP4PVTNuQ_WRpXy-129">
          <mxGeometry x="163" y="36.5" width="30" height="30" as="geometry" />
        </mxCell>
        <mxCell id="OmSPqTP4PVTNuQ_WRpXy-142" value="" style="rounded=1;whiteSpace=wrap;html=1;shadow=0;labelBackgroundColor=none;strokeWidth=1;fontFamily=Verdana;fontSize=8;align=center;movable=1;resizable=1;rotatable=1;deletable=1;editable=1;locked=0;connectable=1;" vertex="1" parent="OmSPqTP4PVTNuQ_WRpXy-129">
          <mxGeometry x="281" y="33" width="178" height="37" as="geometry" />
        </mxCell>
        <mxCell id="OmSPqTP4PVTNuQ_WRpXy-143" value="No" style="edgeStyle=orthogonalEdgeStyle;rounded=0;html=1;labelBackgroundColor=none;startArrow=classic;startFill=1;startSize=5;endArrow=none;endFill=0;endSize=5;jettySize=auto;orthogonalLoop=1;strokeWidth=1;fontFamily=Verdana;fontSize=8;movable=1;resizable=1;rotatable=1;deletable=1;editable=1;locked=0;connectable=1;" edge="1" parent="OmSPqTP4PVTNuQ_WRpXy-129" source="OmSPqTP4PVTNuQ_WRpXy-141" target="OmSPqTP4PVTNuQ_WRpXy-142">
          <mxGeometry x="-0.9364" y="-15" relative="1" as="geometry">
            <mxPoint as="offset" />
          </mxGeometry>
        </mxCell>
        <mxCell id="OmSPqTP4PVTNuQ_WRpXy-145" value="确定告警/事件上报" style="rounded=1;whiteSpace=wrap;html=1;shadow=0;labelBackgroundColor=none;strokeWidth=1;fontFamily=Verdana;fontSize=8;align=center;movable=1;resizable=1;rotatable=1;deletable=1;editable=1;locked=0;connectable=1;" vertex="1" parent="OmSPqTP4PVTNuQ_WRpXy-81">
          <mxGeometry x="338" y="149" width="178" height="37" as="geometry" />
        </mxCell>
        <mxCell id="OmSPqTP4PVTNuQ_WRpXy-85" value="处置组" style="swimlane;html=1;startSize=20;horizontal=0;movable=1;resizable=1;rotatable=1;deletable=1;editable=1;locked=0;connectable=1;" vertex="1" parent="OmSPqTP4PVTNuQ_WRpXy-68">
          <mxGeometry y="564" width="781" height="269" as="geometry" />
        </mxCell>
        <mxCell id="OmSPqTP4PVTNuQ_WRpXy-148" value="开始" style="ellipse;whiteSpace=wrap;html=1;rounded=0;shadow=0;labelBackgroundColor=none;strokeWidth=2;fontFamily=Verdana;fontSize=8;align=center;movable=1;resizable=1;rotatable=1;deletable=1;editable=1;locked=0;connectable=1;" vertex="1" parent="OmSPqTP4PVTNuQ_WRpXy-85">
          <mxGeometry x="698" y="37.5" width="30" height="30" as="geometry" />
        </mxCell>
        <mxCell id="OmSPqTP4PVTNuQ_WRpXy-164" style="edgeStyle=orthogonalEdgeStyle;rounded=0;orthogonalLoop=1;jettySize=auto;html=1;entryX=0.5;entryY=0;entryDx=0;entryDy=0;" edge="1" parent="OmSPqTP4PVTNuQ_WRpXy-85" source="OmSPqTP4PVTNuQ_WRpXy-153" target="OmSPqTP4PVTNuQ_WRpXy-161">
          <mxGeometry relative="1" as="geometry" />
        </mxCell>
        <mxCell id="OmSPqTP4PVTNuQ_WRpXy-153" value="&lt;font face=&quot;Verdana&quot;&gt;处置溯源&lt;/font&gt;" style="swimlane;whiteSpace=wrap;html=1;startSize=20;" vertex="1" parent="OmSPqTP4PVTNuQ_WRpXy-85">
          <mxGeometry x="90" y="7" width="521" height="91" as="geometry" />
        </mxCell>
        <mxCell id="OmSPqTP4PVTNuQ_WRpXy-154" style="edgeStyle=orthogonalEdgeStyle;rounded=0;html=1;labelBackgroundColor=none;startArrow=classic;startFill=1;startSize=5;endArrow=none;endFill=0;endSize=5;jettySize=auto;orthogonalLoop=1;strokeWidth=1;fontFamily=Verdana;fontSize=8;movable=1;resizable=1;rotatable=1;deletable=1;editable=1;locked=0;connectable=1;" edge="1" parent="OmSPqTP4PVTNuQ_WRpXy-153" source="OmSPqTP4PVTNuQ_WRpXy-155" target="OmSPqTP4PVTNuQ_WRpXy-156">
          <mxGeometry relative="1" as="geometry" />
        </mxCell>
        <mxCell id="OmSPqTP4PVTNuQ_WRpXy-155" value="" style="rounded=1;whiteSpace=wrap;html=1;shadow=0;labelBackgroundColor=none;strokeWidth=1;fontFamily=Verdana;fontSize=8;align=center;movable=1;resizable=1;rotatable=1;deletable=1;editable=1;locked=0;connectable=1;" vertex="1" parent="OmSPqTP4PVTNuQ_WRpXy-153">
          <mxGeometry x="33" y="33" width="70" height="37" as="geometry" />
        </mxCell>
        <mxCell id="OmSPqTP4PVTNuQ_WRpXy-156" value="" style="strokeWidth=1;html=1;shape=mxgraph.flowchart.decision;whiteSpace=wrap;rounded=1;shadow=0;labelBackgroundColor=none;fontFamily=Verdana;fontSize=8;align=center;movable=1;resizable=1;rotatable=1;deletable=1;editable=1;locked=0;connectable=1;" vertex="1" parent="OmSPqTP4PVTNuQ_WRpXy-153">
          <mxGeometry x="163" y="36.5" width="30" height="30" as="geometry" />
        </mxCell>
        <mxCell id="OmSPqTP4PVTNuQ_WRpXy-157" value="" style="rounded=1;whiteSpace=wrap;html=1;shadow=0;labelBackgroundColor=none;strokeWidth=1;fontFamily=Verdana;fontSize=8;align=center;movable=1;resizable=1;rotatable=1;deletable=1;editable=1;locked=0;connectable=1;" vertex="1" parent="OmSPqTP4PVTNuQ_WRpXy-153">
          <mxGeometry x="281" y="33" width="178" height="37" as="geometry" />
        </mxCell>
        <mxCell id="OmSPqTP4PVTNuQ_WRpXy-158" value="No" style="edgeStyle=orthogonalEdgeStyle;rounded=0;html=1;labelBackgroundColor=none;startArrow=classic;startFill=1;startSize=5;endArrow=none;endFill=0;endSize=5;jettySize=auto;orthogonalLoop=1;strokeWidth=1;fontFamily=Verdana;fontSize=8;movable=1;resizable=1;rotatable=1;deletable=1;editable=1;locked=0;connectable=1;" edge="1" parent="OmSPqTP4PVTNuQ_WRpXy-153" source="OmSPqTP4PVTNuQ_WRpXy-156" target="OmSPqTP4PVTNuQ_WRpXy-157">
          <mxGeometry x="-0.9364" y="-15" relative="1" as="geometry">
            <mxPoint as="offset" />
          </mxGeometry>
        </mxCell>
        <mxCell id="OmSPqTP4PVTNuQ_WRpXy-151" style="edgeStyle=orthogonalEdgeStyle;rounded=0;orthogonalLoop=1;jettySize=auto;html=1;entryX=1;entryY=0.5;entryDx=0;entryDy=0;" edge="1" parent="OmSPqTP4PVTNuQ_WRpXy-85" source="OmSPqTP4PVTNuQ_WRpXy-148" target="OmSPqTP4PVTNuQ_WRpXy-153">
          <mxGeometry relative="1" as="geometry" />
        </mxCell>
        <mxCell id="OmSPqTP4PVTNuQ_WRpXy-161" value="处置" style="rhombus;whiteSpace=wrap;html=1;" vertex="1" parent="OmSPqTP4PVTNuQ_WRpXy-85">
          <mxGeometry x="170" y="148" width="57" height="57" as="geometry" />
        </mxCell>
        <mxCell id="OmSPqTP4PVTNuQ_WRpXy-124" value="告警流转" style="swimlane;whiteSpace=wrap;html=1;startSize=20;" vertex="1" parent="1">
          <mxGeometry x="2070" y="631" width="366" height="833" as="geometry" />
        </mxCell>
        <mxCell id="OmSPqTP4PVTNuQ_WRpXy-77" value="&lt;font&gt;在线WPS表&lt;/font&gt;" style="rounded=1;whiteSpace=wrap;html=1;shadow=0;labelBackgroundColor=none;strokeWidth=1;fontFamily=Verdana;fontSize=16;align=center;movable=1;resizable=1;rotatable=1;deletable=1;editable=1;locked=0;connectable=1;arcSize=13;spacing=2;horizontal=1;fillColor=#d5e8d4;strokeColor=#82b366;" vertex="1" parent="OmSPqTP4PVTNuQ_WRpXy-124">
          <mxGeometry x="10" y="42" width="159" height="66" as="geometry" />
        </mxCell>
        <mxCell id="OmSPqTP4PVTNuQ_WRpXy-127" value="AI平台" style="rounded=1;whiteSpace=wrap;html=1;shadow=0;labelBackgroundColor=none;strokeWidth=1;fontFamily=Verdana;fontSize=16;align=center;movable=1;resizable=1;rotatable=1;deletable=1;editable=1;locked=0;connectable=1;arcSize=13;spacing=2;horizontal=1;fillColor=#d5e8d4;strokeColor=#82b366;" vertex="1" parent="OmSPqTP4PVTNuQ_WRpXy-124">
          <mxGeometry x="207" y="759" width="151" height="66" as="geometry" />
        </mxCell>
        <mxCell id="OmSPqTP4PVTNuQ_WRpXy-125" value="上报告警" style="edgeStyle=orthogonalEdgeStyle;rounded=0;orthogonalLoop=1;jettySize=auto;html=1;entryX=0.117;entryY=0.986;entryDx=0;entryDy=0;entryPerimeter=0;" edge="1" parent="1" source="OmSPqTP4PVTNuQ_WRpXy-122" target="OmSPqTP4PVTNuQ_WRpXy-77">
          <mxGeometry relative="1" as="geometry">
            <mxPoint x="2122" y="881" as="targetPoint" />
          </mxGeometry>
        </mxCell>
        <mxCell id="OmSPqTP4PVTNuQ_WRpXy-126" style="edgeStyle=orthogonalEdgeStyle;rounded=0;orthogonalLoop=1;jettySize=auto;html=1;endArrow=none;endFill=0;startArrow=classic;startFill=1;entryX=0.25;entryY=1;entryDx=0;entryDy=0;" edge="1" parent="1" source="OmSPqTP4PVTNuQ_WRpXy-75" target="OmSPqTP4PVTNuQ_WRpXy-77">
          <mxGeometry relative="1" as="geometry">
            <mxPoint x="2193" y="740" as="targetPoint" />
          </mxGeometry>
        </mxCell>
        <mxCell id="OmSPqTP4PVTNuQ_WRpXy-128" value="状态标记：处置中" style="edgeStyle=orthogonalEdgeStyle;rounded=0;orthogonalLoop=1;jettySize=auto;html=1;exitX=0.75;exitY=1;exitDx=0;exitDy=0;dashed=1;dashPattern=8 8;entryX=1;entryY=0;entryDx=0;entryDy=0;" edge="1" parent="1" source="OmSPqTP4PVTNuQ_WRpXy-122" target="OmSPqTP4PVTNuQ_WRpXy-127">
          <mxGeometry x="-0.5931" relative="1" as="geometry">
            <Array as="points">
              <mxPoint x="1768" y="891" />
              <mxPoint x="2428" y="891" />
            </Array>
            <mxPoint as="offset" />
          </mxGeometry>
        </mxCell>
        <mxCell id="OmSPqTP4PVTNuQ_WRpXy-147" value="标记状态：上报" style="edgeStyle=orthogonalEdgeStyle;rounded=0;orthogonalLoop=1;jettySize=auto;html=1;entryX=0.5;entryY=1;entryDx=0;entryDy=0;" edge="1" parent="1" source="OmSPqTP4PVTNuQ_WRpXy-145" target="OmSPqTP4PVTNuQ_WRpXy-77">
          <mxGeometry x="-0.7077" relative="1" as="geometry">
            <mxPoint as="offset" />
          </mxGeometry>
        </mxCell>
        <mxCell id="OmSPqTP4PVTNuQ_WRpXy-150" style="edgeStyle=orthogonalEdgeStyle;rounded=0;orthogonalLoop=1;jettySize=auto;html=1;entryX=0.75;entryY=1;entryDx=0;entryDy=0;startArrow=classic;startFill=1;endArrow=none;endFill=0;" edge="1" parent="1" source="OmSPqTP4PVTNuQ_WRpXy-148" target="OmSPqTP4PVTNuQ_WRpXy-77">
          <mxGeometry relative="1" as="geometry" />
        </mxCell>
        <mxCell id="OmSPqTP4PVTNuQ_WRpXy-152" value="数据统一查询" style="edgeStyle=orthogonalEdgeStyle;rounded=0;orthogonalLoop=1;jettySize=auto;html=1;entryX=0.5;entryY=0;entryDx=0;entryDy=0;dashed=1;dashPattern=8 8;exitX=0.25;exitY=1;exitDx=0;exitDy=0;endArrow=none;endFill=0;startArrow=classic;startFill=1;" edge="1" parent="1" source="OmSPqTP4PVTNuQ_WRpXy-129" target="OmSPqTP4PVTNuQ_WRpXy-127">
          <mxGeometry x="-0.6139" relative="1" as="geometry">
            <mxPoint x="1490" y="1043" as="sourcePoint" />
            <Array as="points">
              <mxPoint x="1496" y="1172" />
              <mxPoint x="2353" y="1172" />
            </Array>
            <mxPoint as="offset" />
          </mxGeometry>
        </mxCell>
        <mxCell id="OmSPqTP4PVTNuQ_WRpXy-159" value="状态标记：处置完成" style="edgeStyle=orthogonalEdgeStyle;rounded=0;orthogonalLoop=1;jettySize=auto;html=1;entryX=0.75;entryY=0;entryDx=0;entryDy=0;exitX=0.5;exitY=1;exitDx=0;exitDy=0;dashed=1;dashPattern=8 8;" edge="1" parent="1" source="OmSPqTP4PVTNuQ_WRpXy-145" target="OmSPqTP4PVTNuQ_WRpXy-127">
          <mxGeometry x="-0.4064" relative="1" as="geometry">
            <Array as="points">
              <mxPoint x="1716" y="1155" />
              <mxPoint x="2390" y="1155" />
            </Array>
            <mxPoint x="-1" as="offset" />
          </mxGeometry>
        </mxCell>
        <mxCell id="OmSPqTP4PVTNuQ_WRpXy-160" value="事件处置" style="rounded=1;whiteSpace=wrap;html=1;shadow=0;labelBackgroundColor=none;strokeWidth=1;fontFamily=Verdana;fontSize=8;align=center;movable=1;resizable=1;rotatable=1;deletable=1;editable=1;locked=0;connectable=1;" vertex="1" parent="1">
          <mxGeometry x="1412.5" y="1490" width="150" height="37" as="geometry" />
        </mxCell>
        <mxCell id="OmSPqTP4PVTNuQ_WRpXy-162" value="是" style="edgeStyle=orthogonalEdgeStyle;rounded=0;orthogonalLoop=1;jettySize=auto;html=1;entryX=0.5;entryY=0;entryDx=0;entryDy=0;" edge="1" parent="1" source="OmSPqTP4PVTNuQ_WRpXy-161" target="OmSPqTP4PVTNuQ_WRpXy-160">
          <mxGeometry x="-0.5667" relative="1" as="geometry">
            <mxPoint as="offset" />
          </mxGeometry>
        </mxCell>
        <mxCell id="OmSPqTP4PVTNuQ_WRpXy-163" value="状态标记：是/否" style="edgeStyle=orthogonalEdgeStyle;rounded=0;orthogonalLoop=1;jettySize=auto;html=1;entryX=1;entryY=1;entryDx=0;entryDy=0;" edge="1" parent="1" source="OmSPqTP4PVTNuQ_WRpXy-161" target="OmSPqTP4PVTNuQ_WRpXy-77">
          <mxGeometry x="-0.8643" relative="1" as="geometry">
            <mxPoint as="offset" />
          </mxGeometry>
        </mxCell>
        <mxCell id="OmSPqTP4PVTNuQ_WRpXy-169" value="数据统一查询" style="edgeStyle=orthogonalEdgeStyle;rounded=0;orthogonalLoop=1;jettySize=auto;html=1;entryX=0.75;entryY=1;entryDx=0;entryDy=0;dashed=1;dashPattern=8 8;" edge="1" parent="1" source="OmSPqTP4PVTNuQ_WRpXy-127" target="OmSPqTP4PVTNuQ_WRpXy-153">
          <mxGeometry relative="1" as="geometry" />
        </mxCell>
      </root>
    </mxGraphModel>
  </diagram>
</mxfile>
